G04*
G04 #@! TF.GenerationSoftware,Altium Limited,Altium Designer,20.1.14 (287)*
G04*
G04 Layer_Color=8421504*
%FSLAX25Y25*%
%MOIN*%
G70*
G04*
G04 #@! TF.SameCoordinates,1BDC85E0-9E64-418B-9CD7-3ABB073E6672*
G04*
G04*
G04 #@! TF.FilePolarity,Positive*
G04*
G01*
G75*
%ADD14O,0.07874X0.03937*%
%ADD15O,0.07874X0.03937*%
%ADD16R,0.15000X0.03500*%
%ADD17O,0.02362X0.07480*%
%ADD18R,0.03150X0.03740*%
%ADD19R,0.02756X0.03347*%
%ADD20R,0.02047X0.02047*%
%ADD21R,0.03937X0.04134*%
%ADD22R,0.04134X0.03937*%
D14*
X293000Y283500D02*
D03*
D15*
Y288500D02*
D03*
Y293500D02*
D03*
D16*
X390000Y299500D02*
D03*
Y292000D02*
D03*
Y284500D02*
D03*
Y277000D02*
D03*
D17*
X328000Y275000D02*
D03*
X333000D02*
D03*
X338000D02*
D03*
X343000D02*
D03*
X328000Y293504D02*
D03*
X333000D02*
D03*
X338000D02*
D03*
X343000D02*
D03*
D18*
X326441Y304000D02*
D03*
X331559D02*
D03*
X314000Y288000D02*
D03*
X308882D02*
D03*
D19*
X338736Y304000D02*
D03*
X343264D02*
D03*
D20*
X377000Y295406D02*
D03*
Y298555D02*
D03*
D21*
X370000Y299905D02*
D03*
Y294000D02*
D03*
D22*
X314500Y281000D02*
D03*
X308594D02*
D03*
M02*
