G04*
G04 #@! TF.GenerationSoftware,Altium Limited,Altium Designer,20.1.14 (287)*
G04*
G04 Layer_Color=65535*
%FSLAX25Y25*%
%MOIN*%
G70*
G04*
G04 #@! TF.SameCoordinates,1BDC85E0-9E64-418B-9CD7-3ABB073E6672*
G04*
G04*
G04 #@! TF.FilePolarity,Positive*
G04*
G01*
G75*
%ADD10C,0.01575*%
%ADD11C,0.00984*%
%ADD12C,0.00787*%
%ADD13C,0.00600*%
D10*
X342980Y285039D02*
X342436Y285788D01*
X341556Y285502D01*
Y284577D01*
X342436Y284291D01*
X342980Y285039D01*
D11*
X346839Y293504D02*
X346100Y293930D01*
Y293078D01*
X346839Y293504D01*
D12*
X299302Y296566D02*
X298490Y297139D01*
X297626Y297631D01*
X296719Y298037D01*
X295777Y298352D01*
X294808Y298575D01*
X293823Y298703D01*
X292829Y298735D01*
X291837Y298670D01*
X290857Y298509D01*
X289896Y298254D01*
X288965Y297907D01*
X288071Y297472D01*
X287225Y296951D01*
X286432Y296351D01*
X285702Y295677D01*
X285040Y294936D01*
X284454Y294134D01*
X283947Y293278D01*
X283527Y292378D01*
X283195Y291441D01*
X282956Y290476D01*
X282812Y289493D01*
X282764Y288500D01*
X282812Y287507D01*
X282956Y286524D01*
X283195Y285559D01*
X283527Y284622D01*
X283947Y283722D01*
X284454Y282867D01*
X285040Y282064D01*
X285702Y281323D01*
X286432Y280649D01*
X287225Y280049D01*
X288071Y279528D01*
X288965Y279093D01*
X289896Y278746D01*
X290857Y278491D01*
X291837Y278330D01*
X292829Y278265D01*
X293823Y278297D01*
X294808Y278425D01*
X295777Y278648D01*
X296719Y278963D01*
X297626Y279369D01*
X298490Y279861D01*
X299302Y280434D01*
X325658Y280315D02*
Y288189D01*
X345342Y280315D02*
Y288189D01*
X325658Y280315D02*
X345342D01*
X325658Y288189D02*
X345342D01*
X299299Y280434D02*
Y296566D01*
X374500Y295012D02*
Y298949D01*
X379500Y295012D02*
Y298949D01*
D13*
X347001Y292000D02*
Y289500D01*
X347501Y289001D01*
X348500D01*
X349000Y289500D01*
Y292000D01*
X351999Y289001D02*
X350000D01*
X351999Y291000D01*
Y291500D01*
X351499Y292000D01*
X350500D01*
X350000Y291500D01*
X280001Y300500D02*
Y298000D01*
X280501Y297500D01*
X281500D01*
X282000Y298000D01*
Y300500D01*
X283000Y297500D02*
X283999D01*
X283500D01*
Y300500D01*
X283000Y300000D01*
X300000Y294999D02*
X300500Y295499D01*
X301500D01*
X301999Y294999D01*
Y294499D01*
X301500Y294000D01*
X301000D01*
X301500D01*
X301999Y293500D01*
Y293000D01*
X301500Y292500D01*
X300500D01*
X300000Y293000D01*
X300500Y282000D02*
X301500D01*
X301000D01*
Y284999D01*
X300500Y284499D01*
X319001Y303000D02*
Y305999D01*
X320500D01*
X321000Y305500D01*
Y304500D01*
X320500Y304000D01*
X319001D01*
X320001D02*
X321000Y303000D01*
X322000Y305500D02*
X322500Y305999D01*
X323499D01*
X323999Y305500D01*
Y305000D01*
X323499Y304500D01*
X323000D01*
X323499D01*
X323999Y304000D01*
Y303500D01*
X323499Y303000D01*
X322500D01*
X322000Y303500D01*
X345501Y303000D02*
Y305999D01*
X347000D01*
X347500Y305500D01*
Y304500D01*
X347000Y304000D01*
X345501D01*
X346500D02*
X347500Y303000D01*
X350499D02*
X348500D01*
X350499Y305000D01*
Y305500D01*
X349999Y305999D01*
X349000D01*
X348500Y305500D01*
X307001Y291001D02*
Y294000D01*
X308500D01*
X309000Y293500D01*
Y292500D01*
X308500Y292000D01*
X307001D01*
X308000D02*
X309000Y291001D01*
X310000D02*
X310999D01*
X310500D01*
Y294000D01*
X310000Y293500D01*
X376500Y303500D02*
X376000Y303999D01*
X375001D01*
X374501Y303500D01*
Y301500D01*
X375001Y301000D01*
X376000D01*
X376500Y301500D01*
X377500Y303500D02*
X378000Y303999D01*
X378999D01*
X379499Y303500D01*
Y303000D01*
X378999Y302500D01*
X378500D01*
X378999D01*
X379499Y302000D01*
Y301500D01*
X378999Y301000D01*
X378000D01*
X377500Y301500D01*
X369500Y306000D02*
X369000Y306500D01*
X368001D01*
X367501Y306000D01*
Y304000D01*
X368001Y303501D01*
X369000D01*
X369500Y304000D01*
X372499Y303501D02*
X370500D01*
X372499Y305500D01*
Y306000D01*
X371999Y306500D01*
X371000D01*
X370500Y306000D01*
X308000Y277000D02*
X307500Y277500D01*
X306501D01*
X306001Y277000D01*
Y275000D01*
X306501Y274500D01*
X307500D01*
X308000Y275000D01*
X309000Y274500D02*
X309999D01*
X309500D01*
Y277500D01*
X309000Y277000D01*
M02*
